<svg id="Layer_1" data-name="Layer 1" xmlns="http://www.w3.org/2000/svg" viewBox="0 0 2623.64 1301.77"><defs><style>.cls-1,.cls-3,.cls-5,.cls-7,.cls-8,.cls-9{fill:none;}.cls-1,.cls-10,.cls-3,.cls-4,.cls-5,.cls-6,.cls-7,.cls-8{stroke:#000;}.cls-1,.cls-4,.cls-5{stroke-miterlimit:10;}.cls-2{fill:#1d1d1b;}.cls-10,.cls-3,.cls-8{stroke-linecap:round;}.cls-10,.cls-3,.cls-6,.cls-7,.cls-8{stroke-linejoin:round;}.cls-5{stroke-width:1.5px;}.cls-8{stroke-width:2px;}</style></defs><circle class="cls-1" cx="2290.94" cy="934.38" r="14.26"/><circle class="cls-2" cx="2290.94" cy="934.38" r="11.03"/><circle class="cls-1" cx="2291.94" cy="934.38" r="23.21"/><circle class="cls-1" cx="2291.94" cy="934.38" r="28.32"/><circle class="cls-1" cx="2291.94" cy="934.38" r="37.17"/><circle class="cls-1" cx="2291.94" cy="934.38" r="51.98"/><circle class="cls-1" cx="2291.94" cy="934.38" r="59.89"/><circle class="cls-1" cx="2291.94" cy="934.38" r="64.4"/><circle class="cls-1" cx="2291.94" cy="934.38" r="78.02"/><circle class="cls-1" cx="2291.94" cy="934.38" r="87.55"/><circle class="cls-1" cx="2291.94" cy="934.38" r="112.23"/><circle class="cls-1" cx="2291.94" cy="934.38" r="125.77"/><path class="cls-1" d="M2442.21,934.38a150.28,150.28,0,1,1-150.28-150.27A150.28,150.28,0,0,1,2442.21,934.38Z"/><path class="cls-1" d="M2442.21,934.38a150.28,150.28,0,1,1-150.28-150.27A150.28,150.28,0,0,1,2442.21,934.38Z"/><path class="cls-1" d="M2442.21,934.38a150.28,150.28,0,1,1-150.28-150.27A150.28,150.28,0,0,1,2442.21,934.38Z"/><circle class="cls-1" cx="2290.77" cy="967.45" r="2.94"/><circle class="cls-1" cx="2271.66" cy="960.53" r="2.94"/><circle class="cls-1" cx="2260.68" cy="943.17" r="2.94"/><circle class="cls-1" cx="2260.68" cy="924.28" r="2.94"/><circle class="cls-1" cx="2273.74" cy="906.96" r="2.94"/><circle class="cls-1" cx="2292.11" cy="901.39" r="2.94"/><circle class="cls-1" cx="2312.21" cy="909" r="2.94"/><circle class="cls-1" cx="2323.19" cy="925.94" r="2.94"/><circle class="cls-1" cx="2312.21" cy="959.77" r="2.94"/><circle class="cls-1" cx="2322.54" cy="946.11" r="2.94"/><circle class="cls-1" cx="2329.11" cy="909.89" r="3.6"/><circle class="cls-1" cx="2335.4" cy="936.63" r="3.6"/><circle class="cls-1" cx="2276.67" cy="976.12" r="3.6"/><circle class="cls-1" cx="2307.68" cy="893.61" r="3.6"/><circle class="cls-1" cx="2280.27" cy="893.61" r="3.6"/><circle class="cls-1" cx="2257.74" cy="907.57" r="3.6"/><circle class="cls-1" cx="2248.6" cy="934.38" r="3.6"/><circle class="cls-1" cx="2326.79" cy="962.24" r="3.6"/><circle class="cls-1" cx="2304.09" cy="976.85" r="3.6"/><circle class="cls-1" cx="2254.77" cy="958.64" r="3.6"/><circle class="cls-1" cx="1915.26" cy="934.38" r="14.26"/><circle class="cls-2" cx="1915.26" cy="934.38" r="11.03"/><circle class="cls-1" cx="1916.26" cy="934.38" r="23.21"/><circle class="cls-1" cx="1916.26" cy="934.38" r="28.32"/><circle class="cls-1" cx="1916.26" cy="934.38" r="37.17"/><circle class="cls-1" cx="1916.26" cy="934.38" r="51.98"/><circle class="cls-1" cx="1916.26" cy="934.38" r="59.89"/><circle class="cls-1" cx="1916.26" cy="934.38" r="64.4"/><circle class="cls-1" cx="1916.26" cy="934.38" r="78.02"/><circle class="cls-1" cx="1916.26" cy="934.38" r="87.55"/><circle class="cls-1" cx="1916.26" cy="934.38" r="112.23"/><path class="cls-1" d="M2042,934.38a125.77,125.77,0,1,1-125.77-125.76A125.77,125.77,0,0,1,2042,934.38Z"/><path class="cls-1" d="M2042,934.38a125.77,125.77,0,1,1-125.77-125.76A125.77,125.77,0,0,1,2042,934.38Z"/><circle class="cls-1" cx="1915.09" cy="967.45" r="2.94"/><circle class="cls-1" cx="1895.99" cy="960.53" r="2.94"/><circle class="cls-1" cx="1885.01" cy="943.17" r="2.94"/><circle class="cls-1" cx="1885.01" cy="924.28" r="2.94"/><circle class="cls-1" cx="1898.06" cy="906.96" r="2.94"/><circle class="cls-1" cx="1916.43" cy="901.39" r="2.94"/><circle class="cls-1" cx="1936.54" cy="909" r="2.94"/><circle class="cls-1" cx="1947.52" cy="925.94" r="2.94"/><circle class="cls-1" cx="1936.54" cy="959.77" r="2.94"/><circle class="cls-1" cx="1946.87" cy="946.11" r="2.94"/><circle class="cls-1" cx="1953.43" cy="909.89" r="3.6"/><circle class="cls-1" cx="1959.73" cy="936.63" r="3.6"/><circle class="cls-1" cx="1901" cy="976.12" r="3.6"/><circle class="cls-1" cx="1932.01" cy="893.61" r="3.6"/><circle class="cls-1" cx="1904.6" cy="893.61" r="3.6"/><circle class="cls-1" cx="1882.07" cy="907.57" r="3.6"/><circle class="cls-1" cx="1872.92" cy="934.38" r="3.6"/><circle class="cls-1" cx="1951.12" cy="962.24" r="3.6"/><circle class="cls-1" cx="1928.41" cy="976.85" r="3.6"/><circle class="cls-1" cx="1879.09" cy="958.64" r="3.6"/><circle class="cls-1" cx="800.68" cy="942.3" r="14.26"/><circle class="cls-1" cx="800.68" cy="942.3" r="11.03"/><circle class="cls-1" cx="801.68" cy="942.3" r="23.21"/><circle class="cls-1" cx="801.68" cy="942.3" r="28.32"/><circle class="cls-1" cx="801.68" cy="942.3" r="37.17"/><circle class="cls-1" cx="801.68" cy="942.3" r="51.98"/><circle class="cls-1" cx="801.68" cy="942.3" r="59.89"/><circle class="cls-1" cx="801.68" cy="942.3" r="64.4"/><circle class="cls-1" cx="801.68" cy="942.3" r="78.02"/><circle class="cls-1" cx="801.68" cy="942.3" r="87.55"/><circle class="cls-1" cx="801.68" cy="942.3" r="112.23"/><circle class="cls-1" cx="801.68" cy="942.3" r="125.77"/><circle class="cls-1" cx="801.68" cy="942.3" r="150.28"/><circle class="cls-1" cx="801.85" cy="940.95" r="150.28"/><path class="cls-1" d="M962.42,942.3A160.75,160.75,0,1,1,801.68,781.55,160.75,160.75,0,0,1,962.42,942.3Z"/><path class="cls-1" d="M801.68,776.11A166.23,166.23,0,0,0,638.94,908.47a162.64,162.64,0,0,0-2.64,17.37q-.81,8.11-.81,16.46A166.19,166.19,0,1,0,801.68,776.11Zm0,326.93A160.75,160.75,0,1,1,962.42,942.3,160.75,160.75,0,0,1,801.68,1103Z"/><path class="cls-1" d="M962.42,942.3A160.75,160.75,0,1,1,801.68,781.55,160.75,160.75,0,0,1,962.42,942.3Z"/><circle class="cls-1" cx="800.51" cy="975.36" r="2.94"/><circle class="cls-1" cx="781.4" cy="968.45" r="2.94"/><circle class="cls-1" cx="770.42" cy="951.09" r="2.94"/><circle class="cls-1" cx="770.42" cy="932.19" r="2.94"/><circle class="cls-1" cx="783.48" cy="914.87" r="2.94"/><circle class="cls-1" cx="801.85" cy="909.3" r="2.94"/><circle class="cls-1" cx="821.96" cy="916.92" r="2.94"/><circle class="cls-1" cx="832.94" cy="933.85" r="2.94"/><circle class="cls-1" cx="821.96" cy="967.68" r="2.94"/><circle class="cls-1" cx="832.28" cy="954.02" r="2.94"/><circle class="cls-1" cx="838.85" cy="917.81" r="3.6"/><circle class="cls-1" cx="845.15" cy="944.55" r="3.6"/><circle class="cls-1" cx="786.42" cy="984.04" r="3.6"/><circle class="cls-1" cx="817.43" cy="901.53" r="3.6"/><circle class="cls-1" cx="790.02" cy="899.53" r="3.6"/><circle class="cls-1" cx="766.49" cy="914.49" r="3.6"/><circle class="cls-1" cx="757.34" cy="942.3" r="3.6"/><circle class="cls-1" cx="757.34" cy="942.3" r="5.85"/><circle class="cls-1" cx="766.49" cy="914.49" r="5.85"/><circle class="cls-1" cx="790.02" cy="899.53" r="5.85"/><circle class="cls-1" cx="817.43" cy="901.53" r="5.85"/><circle class="cls-1" cx="839.14" cy="917.81" r="5.85"/><circle class="cls-1" cx="845.15" cy="944.55" r="5.85"/><circle class="cls-1" cx="764.51" cy="966.56" r="5.85"/><circle class="cls-1" cx="786.42" cy="984.04" r="5.85"/><circle class="cls-1" cx="813.83" cy="984.77" r="5.85"/><circle class="cls-1" cx="836.53" cy="970.16" r="5.85"/><circle class="cls-1" cx="836.53" cy="970.16" r="3.6"/><circle class="cls-1" cx="813.83" cy="984.77" r="3.6"/><circle class="cls-1" cx="764.51" cy="966.56" r="3.6"/><line class="cls-1" x1="2078.96" y1="968.42" x2="2129.24" y2="968.42"/><line class="cls-1" x1="2078.96" y1="964.51" x2="2129.24" y2="964.51"/><polyline class="cls-1" points="2082.45 937.98 2125.74 937.98 2082.16 944.33 2125.98 943.17 2082.16 948.64 2126.35 948.64 2081.51 952.23 2127.36 952.23 2080.69 957.6 2127.36 957.6"/><circle class="cls-1" cx="2102.53" cy="899.21" r="14.29"/><circle class="cls-1" cx="2102.53" cy="899.21" r="20.23"/><path class="cls-1" d="M2127.6,899.21A25.07,25.07,0,0,1,2081,912a166,166,0,0,0-3.16-16.8,25.07,25.07,0,0,1,49.81,4.05Z"/><path class="cls-1" d="M2127.6,899.21A25.07,25.07,0,0,1,2081,912a166,166,0,0,0-3.16-16.8c-.75-3.11-1.58-6.18-2.51-9.21A30.3,30.3,0,0,1,2119.39,874l-2.91,4.34A25,25,0,0,1,2127.6,899.21Z"/><path class="cls-1" d="M2082.33,928q-.12-3.3-.38-6.57c-.24-3.19-.58-6.35-1-9.48a166,166,0,0,0-3.16-16.8c-.75-3.11-1.58-6.18-2.51-9.21-.38-1.26-.78-2.5-1.2-3.74-.26-.83-.54-1.66-.83-2.49q-.95-2.73-2-5.42a166.68,166.68,0,0,0-69.34-82.36c-2.07-1.25-4.17-2.46-6.3-3.61a164.09,164.09,0,0,0-20.37-9.37q-2.94-1.11-5.93-2.12a167.12,167.12,0,0,0-101.56-1.46q-3.72,1.14-7.37,2.44a166.66,166.66,0,0,0-100.18,99.3c-.6,1.64-1.18,3.29-1.72,5a164.74,164.74,0,0,0-8.26,45.48c0,.78-.07,1.57-.09,2.36,0,1.48-.06,3-.06,4.46a166.19,166.19,0,1,0,332.38,0C2082.45,932.25,2082.41,930.12,2082.33,928Zm-166.07,167.12a160.74,160.74,0,0,1-160.74-160.75c0-1.22,0-2.43,0-3.64s.07-2.59.13-3.88a160.33,160.33,0,0,1,7.67-42.19q1-3.2,2.2-6.33a160.81,160.81,0,0,1,304.18,8.11q1.47,4.72,2.66,9.57a158.21,158.21,0,0,1,3.21,17.1q.66,4.89,1,9.87.41,5.64.4,11.39A160.75,160.75,0,0,1,1916.26,1095.13Z"/><path class="cls-1" d="M2076.61,923q-.34-5-1-9.87a158.21,158.21,0,0,0-3.21-17.1q-1.18-4.85-2.66-9.57a160.81,160.81,0,0,0-304.18-8.11q-1.17,3.13-2.2,6.33a160.33,160.33,0,0,0-7.67,42.19c-.06,1.29-.1,2.58-.13,3.88s0,2.42,0,3.64a160.75,160.75,0,1,0,321.49,0Q2077,928.64,2076.61,923Zm-160.35,161.67A150.28,150.28,0,0,1,1766,934.38c0-1.74,0-3.48.09-5.21.1-2.86.27-5.69.53-8.51a149.82,149.82,0,0,1,4.79-26.36q1.48-5.4,3.36-10.62a150.3,150.3,0,1,1,141.51,201Z"/><path class="cls-1" d="M1916.26,784.11a150.35,150.35,0,0,0-141.51,99.57q-1.87,5.22-3.36,10.62a149.82,149.82,0,0,0-4.79,26.36c-.26,2.82-.43,5.65-.53,8.51-.06,1.73-.09,3.47-.09,5.21a150.28,150.28,0,1,0,150.28-150.27Zm0,276A125.77,125.77,0,1,1,2042,934.38,125.76,125.76,0,0,1,1916.26,1060.15Z"/><path class="cls-1" d="M2042,934.38a125.77,125.77,0,1,1-125.77-125.76A125.77,125.77,0,0,1,2042,934.38Z"/><path class="cls-1" d="M2102.53,929.51a30.17,30.17,0,0,1-20.58-8.07q.26,3.27.38,6.57a35.17,35.17,0,0,0,43.65-2.6q.21-3.92.6-7.77A30.24,30.24,0,0,1,2102.53,929.51Zm13.95-51.13,2.91-4.34,2.72-4.06a35.19,35.19,0,0,0-39.16,0l2.9,3.94a30.21,30.21,0,0,0-10.57,12c.93,3,1.76,6.1,2.51,9.21A166,166,0,0,1,2081,912a25.07,25.07,0,1,0,35.53-33.58Z"/><path class="cls-1" d="M2085.85,873.92a30.21,30.21,0,0,0-10.57,12c-.38-1.26-.78-2.5-1.2-3.74-.26-.83-.54-1.66-.83-2.49a35,35,0,0,1,3.33-4.25c.13-.15.27-.29.42-.44a34.65,34.65,0,0,1,5.9-5l0,0Z"/><path class="cls-1" d="M2133.81,883.09c-.2.61-.39,1.22-.58,1.83-.59,1.88-1.14,3.76-1.65,5.66a29.84,29.84,0,0,0-6.37-11.45h0a29.32,29.32,0,0,0-5.81-5.08l2.72-4.06c.83.56,1.64,1.15,2.42,1.78a35,35,0,0,1,6,6.16l.43.57A34.87,34.87,0,0,1,2133.81,883.09Z"/><path class="cls-1" d="M2131.58,890.58a164.07,164.07,0,0,0-5,27h0a30.29,30.29,0,0,1-44.63,3.8c-.24-3.19-.58-6.35-1-9.48a25.07,25.07,0,1,0,35.53-33.58l2.91-4.34a29.32,29.32,0,0,1,5.81,5.08h0a29.84,29.84,0,0,1,6.37,11.45Z"/><polyline class="cls-1" points="2080.69 908.75 2103.43 897.85 2127.36 911.15"/><polyline class="cls-1" points="2085.85 873.92 2088.95 878.14 2091.82 882.05 2103.43 897.85 2113.78 882.4 2116.48 878.38"/><line class="cls-1" x1="2104.1" y1="934.34" x2="2103.1" y2="897.85"/><path class="cls-1" d="M2136.2,876.23q-1.26,3.39-2.39,6.86a34.87,34.87,0,0,0-2.84-4.6l-3.21-34.72-.18-2-.86-9.29-.48-5.23,5.41,0,.49,5.24.86,9.28.18,1.92Z"/><polygon class="cls-1" points="2131.65 827.33 2126.24 827.29 2126.15 826.36 2131.56 826.36 2131.65 827.33"/><path class="cls-1" d="M2081.07,826.91l-.48,5.22-.86,9.27-.22,2.37-2.93,31.7a35,35,0,0,0-3.33,4.25q-.95-2.73-2-5.42l2.84-30.53.22-2.41.87-9.28.48-5.22Z"/><polygon class="cls-1" points="2081.09 826.69 2081.07 826.91 2075.66 826.86 2075.68 826.69 2081.09 826.69"/><polygon class="cls-1" points="2086.9 826.69 2086.88 826.96 2081.48 826.91 2081.5 826.69 2086.9 826.69"/><line class="cls-1" x1="2079.91" y1="843.77" x2="2079.51" y2="843.77"/><polygon class="cls-1" points="2125.83 827.28 2120.42 827.24 2120.34 826.36 2125.74 826.36 2125.83 827.28"/><line class="cls-1" x1="2127.76" y1="843.77" x2="2127.36" y2="843.77"/><path class="cls-1" d="M2133.18,843.77h19.41c.29-27.31-.51-37.33-1.53-40.13a4.93,4.93,0,0,1,3.24-7.15c15.77-.09,30.07-.59,45.85-.67"/><line class="cls-1" x1="2121.95" y1="843.77" x2="2085.32" y2="843.77"/><path class="cls-1" d="M2008.67,796.23h44.86a5.36,5.36,0,0,1,3.07,1.95c1.69,2.4.3,6,0,6.91-1.34,3.87-2.2,13.87-1,38.68h18.5"/><path class="cls-1" d="M2202.12,794.53h-51.23a6.29,6.29,0,0,1-2.21-3.4c-.15-.7,0-.81-.17-3.07s-.33-2.81-.68-3.23a3.16,3.16,0,0,0-2-1l-84.77-.17a5.3,5.3,0,0,0-2.38,1.53c-1.65,1.93-.71,4.13-2,6.3a6.65,6.65,0,0,1-3.92,2.72l-46,.71"/><path class="cls-1" d="M2086.88,827l-.49,5.22-.86,9.27-.21,2.32L2082.9,870a34.65,34.65,0,0,0-5.9,5l2.91-31.26.22-2.36.86-9.28.49-5.22Z"/><line class="cls-1" x1="2081.48" y1="826.91" x2="2081.07" y2="826.91"/><path class="cls-1" d="M2130.54,877.92a35,35,0,0,0-6-6.16l-2.58-28-.19-2-.85-9.29-.49-5.23,5.41,0,.48,5.24.87,9.28.18,2Z"/><line class="cls-1" x1="2126.24" y1="827.29" x2="2125.83" y2="827.28"/><line class="cls-1" x1="2152.63" y1="827.51" x2="2131.65" y2="827.33"/><line class="cls-1" x1="2120.42" y1="827.24" x2="2086.88" y2="826.96"/><line class="cls-1" x1="2075.66" y1="826.86" x2="2055.04" y2="826.69"/><line class="cls-1" x1="2080.99" y1="832.13" x2="2080.59" y2="832.13"/><line class="cls-1" x1="2126.72" y1="832.52" x2="2126.31" y2="832.52"/><line class="cls-1" x1="2152.43" y1="832.74" x2="2132.14" y2="832.57"/><line class="cls-1" x1="2120.91" y1="832.47" x2="2086.39" y2="832.18"/><line class="cls-1" x1="2075.18" y1="832.08" x2="2054.84" y2="831.91"/><line class="cls-1" x1="2080.13" y1="841.41" x2="2079.73" y2="841.4"/><line class="cls-1" x1="2127.58" y1="841.81" x2="2127.18" y2="841.8"/><line class="cls-1" x1="2151.75" y1="842.01" x2="2133" y2="841.85"/><line class="cls-1" x1="2121.76" y1="841.76" x2="2085.53" y2="841.45"/><line class="cls-1" x1="2074.31" y1="841.36" x2="2054.16" y2="841.19"/><polyline class="cls-3" points="2085.87 841.36 2089.13 832.2 2092.57 841.27 2095.88 832.47 2098.06 841.36 2102.09 832.74 2104 841.27 2106.62 832.47 2109.34 841.45 2111.98 832.39 2114.09 841.76 2116.13 832.33 2118.55 841.81 2120.42 832.47"/><path class="cls-3" d="M1976.53,776.19a3.6,3.6,0,0,1-1.29,2.77q-2.94-1.11-5.93-2.12a3.49,3.49,0,0,1-.06-.65,3.64,3.64,0,0,1,7.28,0Z"/><circle class="cls-3" cx="1985.79" cy="776.19" r="3.64"/><circle class="cls-3" cx="1998.68" cy="776.19" r="3.64"/><circle class="cls-3" cx="2011.57" cy="776.19" r="3.08"/><path class="cls-3" d="M2002.32,790.28a3.58,3.58,0,0,1-.41,1.66c-2.07-1.25-4.17-2.46-6.3-3.61a3.64,3.64,0,0,1,6.71,1.95Z"/><circle class="cls-3" cx="2011.57" cy="790.28" r="3.08"/><circle class="cls-3" cx="2024.47" cy="790.28" r="3.64"/><circle class="cls-3" cx="2037.36" cy="790.28" r="3.08"/><circle class="cls-3" cx="2050.26" cy="790.28" r="3.64"/><circle class="cls-3" cx="2070.39" cy="796.45" r="3.08"/><circle class="cls-3" cx="2076.04" cy="790.28" r="2.57"/><circle class="cls-3" cx="2076.47" cy="803.13" r="2.57"/><circle class="cls-3" cx="2064.24" cy="803.13" r="2.57"/><circle class="cls-3" cx="2076.5" cy="816.53" r="2.57"/><circle class="cls-3" cx="2064.27" cy="816.53" r="2.57"/><circle class="cls-3" cx="2063.68" cy="790.28" r="2.57"/><circle class="cls-3" cx="1652.87" cy="796.19" r="3.08"/><circle class="cls-3" cx="1658.53" cy="790.02" r="2.57"/><circle class="cls-3" cx="1658.95" cy="802.87" r="2.57"/><path class="cls-3" d="M1649.29,802.87a2.56,2.56,0,0,1-1.8,2.45v-4.9A2.56,2.56,0,0,1,1649.29,802.87Z"/><path class="cls-3" d="M1648.74,790a2.55,2.55,0,0,1-1.25,2.2v-3.43q0-.49,0-1A2.55,2.55,0,0,1,1648.74,790Z"/><circle class="cls-3" cx="1679.94" cy="795.93" r="3.08"/><circle class="cls-3" cx="1685.59" cy="789.76" r="2.57"/><circle class="cls-3" cx="1686.02" cy="802.61" r="2.57"/><circle class="cls-3" cx="1673.79" cy="802.61" r="2.57"/><circle class="cls-3" cx="1673.23" cy="789.76" r="2.57"/><circle class="cls-3" cx="1719.64" cy="797.13" r="3.08"/><circle class="cls-3" cx="1725.3" cy="790.96" r="2.57"/><circle class="cls-3" cx="1725.72" cy="803.82" r="2.57"/><circle class="cls-3" cx="1713.49" cy="803.82" r="2.57"/><circle class="cls-3" cx="1712.94" cy="790.96" r="2.57"/><circle class="cls-3" cx="1796.65" cy="797.13" r="3.08"/><circle class="cls-3" cx="1802.73" cy="803.82" r="2.57"/><circle class="cls-3" cx="1790.5" cy="803.82" r="2.57"/><circle class="cls-3" cx="1789.95" cy="790.96" r="2.57"/><circle class="cls-3" cx="2088.94" cy="790.28" r="3.08"/><circle class="cls-3" cx="2089.48" cy="802.13" r="3.08"/><circle class="cls-3" cx="2090.02" cy="815.18" r="3.08"/><circle class="cls-3" cx="2101.83" cy="790.28" r="2.11"/><circle class="cls-3" cx="2102.28" cy="802.6" r="2.11"/><circle class="cls-3" cx="2103.15" cy="815.53" r="2.11"/><circle class="cls-3" cx="2114.72" cy="790.28" r="3.08"/><circle class="cls-3" cx="2115.91" cy="802.6" r="3.08"/><circle class="cls-3" cx="2116.26" cy="815.18" r="3.08"/><circle class="cls-3" cx="2127.62" cy="790.28" r="2.11"/><circle class="cls-3" cx="2142.14" cy="790.28" r="2.11"/><circle class="cls-3" cx="2128.94" cy="803.1" r="2.11"/><circle class="cls-3" cx="2143.47" cy="803.1" r="2.11"/><circle class="cls-3" cx="2128.94" cy="816.15" r="2.11"/><circle class="cls-3" cx="2143.47" cy="816.15" r="2.11"/><circle class="cls-3" cx="2135.23" cy="795.82" r="3.08"/><circle class="cls-3" cx="2135.74" cy="808.62" r="3.08"/><circle class="cls-3" cx="2070.39" cy="810.89" r="3.08"/><circle class="cls-3" cx="2153.4" cy="790.28" r="3.64"/><circle class="cls-3" cx="2166.3" cy="790.28" r="3.08"/><circle class="cls-3" cx="2179.19" cy="790.28" r="3.64"/><circle class="cls-3" cx="2192.09" cy="790.28" r="3.08"/><path class="cls-3" d="M2363.49,784.35q-5.72-2.75-11.66-5a167,167,0,0,0-102.08-5.71q-4,1-7.83,2.26-2.33.72-4.62,1.53c-2.07.71-4.11,1.46-6.13,2.27a164.28,164.28,0,0,0-22.58,10.91c-1.7,1-3.37,2-5,3l-1.44.91c-.66.42-1.32.85-2,1.29a166.72,166.72,0,0,0-64,80.41q-1.26,3.39-2.39,6.86c-.2.61-.39,1.22-.58,1.83-.59,1.88-1.14,3.76-1.65,5.66a164.07,164.07,0,0,0-5,27h0q-.39,3.86-.6,7.77-.24,4.46-.24,9a166.2,166.2,0,1,0,237.75-150Zm-71.56,310.78a160.75,160.75,0,0,1-160.74-160.75q0-8.07.78-15.93a160.84,160.84,0,0,1,219.86-133.27q6,2.37,11.66,5.23a160.77,160.77,0,0,1-71.56,304.72Z"/><path class="cls-3" d="M2363.49,790.41q-5.7-2.85-11.66-5.23A160.67,160.67,0,0,0,2132,918.45q-.78,7.86-.78,15.93a160.75,160.75,0,1,0,232.3-144Zm-71.56,294.25a150.28,150.28,0,1,1,150.28-150.28A150.27,150.27,0,0,1,2291.93,1084.66Z"/><path class="cls-3" d="M2208.61,790.28a1.37,1.37,0,0,1,0,.29c-1.7,1-3.37,2-5,3a3.63,3.63,0,1,1,5.05-3.34Z"/><circle class="cls-3" cx="2024.47" cy="776.19" r="3.64"/><circle class="cls-3" cx="2037.36" cy="776.19" r="3.64"/><circle class="cls-3" cx="2050.26" cy="776.19" r="3.64"/><circle class="cls-3" cx="2063.15" cy="776.19" r="3.64"/><circle class="cls-3" cx="2076.04" cy="776.19" r="3.64"/><circle class="cls-3" cx="2088.94" cy="776.19" r="3.64"/><circle class="cls-3" cx="2101.83" cy="776.19" r="3.64"/><circle class="cls-3" cx="2114.72" cy="776.19" r="3.64"/><circle class="cls-3" cx="2127.62" cy="776.19" r="2.93"/><circle class="cls-3" cx="2140.51" cy="776.19" r="3.64"/><circle class="cls-3" cx="2153.4" cy="776.19" r="3.64"/><circle class="cls-3" cx="2166.3" cy="776.19" r="3.64"/><circle class="cls-3" cx="2179.19" cy="776.19" r="3.64"/><circle class="cls-3" cx="2192.09" cy="776.19" r="3.64"/><circle class="cls-3" cx="2204.98" cy="776.19" r="3.64"/><circle class="cls-3" cx="2217.87" cy="776.19" r="3.64"/><path class="cls-3" d="M2237.47,776.19a4.3,4.3,0,0,1-.17,1.2c-2.07.71-4.11,1.46-6.13,2.27a4.1,4.1,0,1,1,6.3-3.47Z"/><path class="cls-3" d="M2249.75,773.6q-4,1-7.83,2.26a4,4,0,0,1-.06-.69,4.1,4.1,0,0,1,7.89-1.57Z"/><circle class="cls-4" cx="2440.17" cy="789.02" r="4.91"/><circle class="cls-4" cx="2440.17" cy="816.09" r="4.91"/><circle class="cls-4" cx="2466.47" cy="816.09" r="4.91"/><circle class="cls-4" cx="2453.78" cy="789.02" r="1.58"/><circle class="cls-4" cx="2453.43" cy="815.57" r="1.58"/><circle class="cls-1" cx="2453.22" cy="800.26" r="8.36"/><line class="cls-1" x1="2435.26" y1="789.02" x2="2435.26" y2="816.09"/><polyline class="cls-1" points="2470.69 818.57 2473.44 818.57 2473.44 862.23 2470.43 862.23"/><path class="cls-1" d="M2440.17,821a39.08,39.08,0,0,1,9.53,5.49,26.8,26.8,0,0,1,7.53,8,23.67,23.67,0,0,1,2.94,8.81l.51,18.89h2.76"/><polygon class="cls-5" points="2461.72 784.73 2461.72 821 2445.13 821 2445.13 784.11 2458.54 784.11 2461.72 784.73"/><path class="cls-6" d="M2486.1,815a4.91,4.91,0,0,1-4.91,4.91,4.83,4.83,0,0,1-1.79-.34v-9.14a4.83,4.83,0,0,1,1.79-.34A4.91,4.91,0,0,1,2486.1,815Z"/><path class="cls-7" d="M2500.66,827.89V865.3H2479.4V819.55a4.83,4.83,0,0,0,1.79.34,4.91,4.91,0,0,0,0-9.82,4.83,4.83,0,0,0-1.79.34v-3.84l-11.68-12.68h-6v-5.95h12.81v5.4l2.38,2.38h9.7l5,3.83.77,21.45Z"/><rect class="cls-7" x="2483.17" y="833" width="12.77" height="26.43" rx="4.15"/><polyline class="cls-7" points="2457.98 784.11 2362.75 765.85 2308.98 764.45 1179.23 764.25 1006.38 764.22"/><polyline class="cls-7" points="1006.38 760.23 2308.97 760.23 2362.88 760.23 2486.61 784.11 2486.61 795.72"/><line class="cls-7" x1="2486.61" y1="789.6" x2="2461.72" y2="784.73"/><circle class="cls-5" cx="2466.94" cy="841.17" r="2.3"/><path class="cls-1" d="M2470.51,863a3.58,3.58,0,0,1-7.15,0,3.94,3.94,0,0,1,.08-.77h7A3.94,3.94,0,0,1,2470.51,863Z"/><path d="M2495,827.61a1.5,1.5,0,0,0,0-3,1.5,1.5,0,0,0,0,3Z"/><path d="M2489,828a1.5,1.5,0,0,0,0-3,1.5,1.5,0,0,0,0,3Z"/><path d="M2483.53,828.12a1.5,1.5,0,0,0,0-3,1.5,1.5,0,0,0,0,3Z"/><path d="M2467.06,864.76a1.5,1.5,0,0,0,0-3,1.5,1.5,0,0,0,0,3Z"/><path d="M2480.85,804.12a1.5,1.5,0,0,0,0-3,1.5,1.5,0,0,0,0,3Z"/><path d="M2485.6,803.73a1.5,1.5,0,0,0,0-3,1.5,1.5,0,0,0,0,3Z"/><path d="M2490.43,803.35a1.5,1.5,0,0,0,0-3,1.5,1.5,0,0,0,0,3Z"/><polyline class="cls-7" points="2450.3 826.96 2419.2 826.96 2424.32 833.31 2456.43 833.31"/><circle class="cls-7" cx="2414.83" cy="789.92" r="1.98"/><circle class="cls-7" cx="2428.27" cy="789.92" r="1.98"/><circle class="cls-7" cx="2414.83" cy="803.83" r="1.98"/><circle class="cls-7" cx="2402.19" cy="803.83" r="1.98"/><circle class="cls-7" cx="2414.83" cy="816.09" r="2.87"/><circle class="cls-7" cx="2428.27" cy="803.83" r="1.98"/><circle class="cls-7" cx="2421.17" cy="796.56" r="2.74"/><circle class="cls-7" cx="2388.75" cy="789.92" r="1.98"/><circle class="cls-7" cx="2376.36" cy="775.86" r="1.98"/><circle class="cls-7" cx="2402.19" cy="789.92" r="1.98"/><circle class="cls-4" cx="2388.75" cy="776.93" r="1.98"/><circle class="cls-7" cx="2395.09" cy="796.56" r="2.74"/><path class="cls-7" d="M2363.49,775v9.39q-5.72-2.75-11.66-5V775Z"/><polygon class="cls-7" points="1647.49 827.64 1788.88 827.64 1783.84 833.96 1647.49 833.96 1647.49 827.64"/><rect class="cls-7" x="1723.57" y="822.15" width="12" height="30.26"/><polygon class="cls-7" points="1693.45 833.96 1697.53 836.06 1715.91 836.06 1718.19 833.96 1693.45 833.96"/><circle cx="1647.49" cy="776.38" r="3.89"/><circle cx="1661.02" cy="776.38" r="3.89"/><circle cx="1674.55" cy="776.38" r="3.89"/><circle cx="1688.09" cy="776.38" r="3.89"/><circle cx="1701.62" cy="776.38" r="3.89"/><circle cx="1715.15" cy="776.38" r="3.89"/><circle cx="1728.68" cy="776.38" r="3.89"/><circle cx="1742.21" cy="776.38" r="3.89"/><circle cx="1755.74" cy="776.38" r="3.89"/><circle cx="1764.81" cy="789.51" r="3.89"/><circle cx="1738.32" cy="789.51" r="3.89"/><circle cx="1751.64" cy="815.55" r="3.89"/><path d="M1738.32,811.66a3.9,3.9,0,1,0,3.89,3.89A3.89,3.89,0,0,0,1738.32,811.66Zm0,6.31a2.42,2.42,0,1,1,2.41-2.42A2.42,2.42,0,0,1,1738.32,818Z"/><circle class="cls-1" cx="1769.28" cy="776.38" r="1.59"/><circle class="cls-1" cx="1779.62" cy="776.38" r="1.59"/><circle class="cls-1" cx="1700.02" cy="790.38" r="2.47"/><circle class="cls-1" cx="1699.48" cy="802.61" r="2.47"/><circle class="cls-1" cx="1688.09" cy="815.55" r="2.47"/><circle class="cls-1" cx="1764.81" cy="816.12" r="2.47"/><circle class="cls-1" cx="1778.03" cy="815.55" r="2.47"/><circle class="cls-1" cx="1778.03" cy="802.61" r="2.47"/><circle class="cls-1" cx="1778.03" cy="789.67" r="2.47"/><circle cx="1700.02" cy="815.55" r="3.84"/><circle cx="1673.79" cy="815.55" r="3.84"/><circle cx="1661.1" cy="815.55" r="3.84"/><path d="M1647.9,819.37a2.82,2.82,0,0,1-.41,0v-7.67a3.84,3.84,0,0,1,.41,7.65Z"/><circle cx="1712.94" cy="815.55" r="3.84"/><circle cx="1790.5" cy="816.12" r="3.84"/><circle cx="1816.99" cy="789.68" r="3.84"/><circle cx="1804.03" cy="789.76" r="3.84"/><circle cx="1796.34" cy="776.38" r="3.89"/><circle cx="1809.87" cy="776.38" r="3.89"/><circle cx="1823.4" cy="776.38" r="3.89"/><circle cx="1836.94" cy="776.38" r="3.89"/><circle cx="1850.47" cy="776.38" r="3.89"/><path d="M1867.75,775.38q-3.72,1.14-7.37,2.44a3.81,3.81,0,0,1-.28-1.44,3.89,3.89,0,0,1,7.65-1Z"/><path class="cls-1" d="M1822.15,797.39H1804a7.49,7.49,0,0,1-5-2.94c-1.35-2-1.39-4.9-1.4-5.88,0-1.92.35-3-.39-4a3.75,3.75,0,0,0-2.63-1.26h-148"/><circle class="cls-1" cx="1751.64" cy="799.94" r="5.27"/><path class="cls-3" d="M1767.23,789.05c-2.58,4-5.2,8.37-7.77,13.19a177.92,177.92,0,0,0-7.68,16.35A117.65,117.65,0,0,0,1736,789.05a59.49,59.49,0,0,0,14.77,2.07A62.77,62.77,0,0,0,1767.23,789.05Z"/><path class="cls-8" d="M1500.25,909.09a6.47,6.47,0,0,0,3.27,0Zm0,0a6.47,6.47,0,0,0,3.27,0ZM1647.46,787.8a16.77,16.77,0,0,0-.83-4.44,17.56,17.56,0,0,0-3.7-6.44,18.08,18.08,0,0,0-13.56-6H1345.44a18,18,0,0,0-18.12,17.91V899.73a18,18,0,0,0,18.12,17.91h283.93a18,18,0,0,0,18.12-17.91V788.79Q1647.49,788.3,1647.46,787.8ZM1497.2,915.72a3.07,3.07,0,0,0,.26-1.25,3.16,3.16,0,0,0-6.13-1.09,14.93,14.93,0,0,1-4.42-9.36c0-.44-.06-.89-.06-1.34a15.39,15.39,0,0,1,.32-3.13,15.17,15.17,0,0,1,2.15-5.15,16.2,16.2,0,0,1,2.37-2.79,3.16,3.16,0,0,0,5.44-3.2,15.13,15.13,0,0,1,9.85.11,3.08,3.08,0,0,0-.28,1.29,3.17,3.17,0,0,0,5.61,2,15,15,0,0,1,4.28,7.71,14.71,14.71,0,0,1,.33,3.13c0,.45,0,.9-.06,1.34a14.94,14.94,0,0,1-4.14,9.08,3.14,3.14,0,0,0-2.85-1.8,3.17,3.17,0,0,0-3.17,3.17,3.07,3.07,0,0,0,.26,1.25Zm4.69-6.42a6.28,6.28,0,0,0,1.63-.21h-3.27A6.3,6.3,0,0,0,1501.89,909.3Z"/><path class="cls-3" d="M1647.46,798.28a11.44,11.44,0,0,0-.83-3.62,13.89,13.89,0,0,0-3.7-5.24,17.86,17.86,0,0,0-5.42-3.37,21.57,21.57,0,0,0-8.14-1.55h-44.44V889.94H1561.7V784.5H1431.23V889.94H1408V784.5h-62.56c-10,0-18.12,6.53-18.12,14.58v90.36c0,8,8.11,14.58,18.12,14.58h141.47c0-.44-.06-.89-.06-1.34a15.39,15.39,0,0,1,.32-3.13,15.17,15.17,0,0,1,2.15-5.15,16.2,16.2,0,0,1,2.37-2.79,3.16,3.16,0,0,0,5.44-3.2,15.13,15.13,0,0,1,9.85.11,3.08,3.08,0,0,0-.28,1.29,3.17,3.17,0,0,0,5.61,2,15,15,0,0,1,4.28,7.71,14.71,14.71,0,0,1,.33,3.13c0,.45,0,.9-.06,1.34h112.51c10,0,18.12-6.53,18.12-14.58V799.08C1647.49,798.82,1647.48,798.55,1647.46,798.28Z"/><path class="cls-3" d="M1345.44,811.61H1408v65.3h-62.56c-10,0-18.12-3.56-18.12-8V819.58C1327.32,815.17,1335.43,811.61,1345.44,811.61Z"/><rect class="cls-3" x="1431.23" y="811.61" width="130.47" height="65.3"/><path class="cls-3" d="M1647.49,819.58v49.36c0,4.41-8.11,8-18.12,8h-44.44v-65.3h44.44a38.19,38.19,0,0,1,8.14.84,24.2,24.2,0,0,1,5.42,1.84,9.92,9.92,0,0,1,3.7,2.87,4.09,4.09,0,0,1,.83,2A3.4,3.4,0,0,1,1647.49,819.58Z"/><path class="cls-3" d="M1345.44,834.07H1408v20.38h-62.56c-10,0-18.12-1.12-18.12-2.49v-15.4C1327.32,835.19,1335.43,834.07,1345.44,834.07Z"/><rect class="cls-3" x="1431.23" y="834.07" width="130.47" height="20.38"/><path class="cls-3" d="M1647.49,836.56V852c0,1.37-8.11,2.49-18.12,2.49h-44.44V834.07h44.44c2.92,0,5.69.1,8.14.27,2.07.14,3.9.34,5.42.57a16.23,16.23,0,0,1,3.7.9c.47.19.75.4.83.61A.35.35,0,0,1,1647.49,836.56Z"/><rect class="cls-3" x="1614.55" y="770.88" width="5.87" height="146.76"/><rect class="cls-3" x="1350.81" y="770.88" width="4.34" height="146.76"/><rect class="cls-8" x="1408" y="784.5" width="23.23" height="105.44"/><line class="cls-8" x1="1431.23" y1="784.5" x2="1431.23" y2="770.88"/><line class="cls-8" x1="1408" y1="784.5" x2="1408" y2="770.88"/><polygon class="cls-3" points="1408 889.94 1415.95 898.87 1425.36 898.87 1431.23 889.94 1408 889.94"/><circle class="cls-3" cx="1420.28" cy="894.72" r="2.47"/><polygon class="cls-3" points="1417.81 889.94 1417.81 898.87 1421.55 898.87 1422.74 898.87 1422.74 889.94 1417.81 889.94"/><rect class="cls-8" x="1561.7" y="784.5" width="23.23" height="105.44"/><line class="cls-8" x1="1584.93" y1="784.5" x2="1584.93" y2="770.89"/><line class="cls-8" x1="1561.7" y1="784.5" x2="1561.7" y2="770.88"/><polygon class="cls-3" points="1584.93 889.94 1579.06 898.88 1569.65 898.88 1561.7 889.94 1584.93 889.94"/><circle class="cls-3" cx="1573.98" cy="894.73" r="2.47"/><rect class="cls-3" x="1571.51" y="889.94" width="4.93" height="8.94"/><polygon class="cls-3" points="1450.64 774.53 1451.91 938.19 1546.13 938.19 1546.13 774.53 1535.91 774.53 1535.91 781.68 1461.87 781.68 1461.62 774.53 1450.64 774.53"/><rect class="cls-3" x="1458.55" y="784.5" width="80.68" height="7.72"/><rect class="cls-3" x="1457.02" y="857.77" width="82.21" height="7.91"/><rect class="cls-3" x="1458.55" y="930.79" width="81.96" height="7.4"/><polygon class="cls-3" points="1462.13 792.22 1461.11 857.77 1536.94 857.77 1536.94 792.22 1462.13 792.22"/><rect class="cls-3" x="1461.11" y="865.68" width="76.85" height="65.11"/><path class="cls-3" d="M1538,885.09v14.46h-21.37a15,15,0,0,0-4.28-7.71,3.17,3.17,0,0,1-5.61-2,3.08,3.08,0,0,1,.28-1.29,15.13,15.13,0,0,0-9.85-.11,3.16,3.16,0,0,1-5.44,3.2,16.2,16.2,0,0,0-2.37,2.79,15.17,15.17,0,0,0-2.15,5.15H1461.1V885.09Z"/><path class="cls-3" d="M1497.46,914.47a3.07,3.07,0,0,1-.26,1.25h-36.1v-6.63h27.18a15,15,0,0,0,3,4.29,3.16,3.16,0,0,1,6.13,1.09Z"/><path class="cls-3" d="M1503.52,909.09a6.47,6.47,0,0,1-3.27,0Z"/><path class="cls-3" d="M1538,909.09v6.63h-31a3.07,3.07,0,0,1-.26-1.25,3.17,3.17,0,0,1,3.17-3.17,3.14,3.14,0,0,1,2.85,1.8,14.88,14.88,0,0,0,2.77-4Z"/><path class="cls-9" d="M1516.59,899.55a15,15,0,0,0-4.28-7.71,3.17,3.17,0,0,1-5.61-2,3.08,3.08,0,0,1,.28-1.29,15.13,15.13,0,0,0-9.85-.11,3.16,3.16,0,0,1-5.44,3.2,16.2,16.2,0,0,0-2.37,2.79,15.17,15.17,0,0,0-2.15,5.15,15.39,15.39,0,0,0-.32,3.13c0,.45,0,.9.06,1.34a14.93,14.93,0,0,0,4.42,9.36,3.16,3.16,0,0,1,6.13,1.09,3.07,3.07,0,0,1-.26,1.25H1507a3.07,3.07,0,0,1-.26-1.25,3.17,3.17,0,0,1,3.17-3.17,3.14,3.14,0,0,1,2.85,1.8,14.94,14.94,0,0,0,4.14-9.08c0-.44.06-.89.06-1.34A14.71,14.71,0,0,0,1516.59,899.55Zm-8.21,4.47a6.64,6.64,0,0,1-4.86,5.07,6.47,6.47,0,0,1-3.27,0,6.65,6.65,0,0,1-4.86-5.07,7.34,7.34,0,0,1-.13-1.34,6.49,6.49,0,0,1,.79-3.13,6.61,6.61,0,0,1,11.67,0,6.49,6.49,0,0,1,.79,3.13A7.34,7.34,0,0,1,1508.38,904Z"/><path class="cls-3" d="M1497.46,889.81a3.16,3.16,0,0,1-5.77,1.8,15,15,0,0,1,5.44-3.2A3.14,3.14,0,0,1,1497.46,889.81Z"/><path class="cls-3" d="M1512.31,891.84a3.17,3.17,0,0,1-5.61-2,3.08,3.08,0,0,1,.28-1.29A15,15,0,0,1,1512.31,891.84Z"/><path class="cls-3" d="M1503.52,909.09a6.47,6.47,0,0,1-3.27,0Z"/><path class="cls-3" d="M1512.72,913.1a15.46,15.46,0,0,1-3.34,2.62,13.57,13.57,0,0,1-1.84.89,14.63,14.63,0,0,1-4.24,1,13.31,13.31,0,0,1-1.41.07,13.05,13.05,0,0,1-1.41-.07,14.93,14.93,0,0,1-4-.91,14.23,14.23,0,0,1-2.12-1,14.59,14.59,0,0,1-3.07-2.34,3.16,3.16,0,0,1,6.13,1.09,3.07,3.07,0,0,1-.26,1.25H1507a3.07,3.07,0,0,1-.26-1.25,3.17,3.17,0,0,1,3.17-3.17A3.14,3.14,0,0,1,1512.72,913.1Z"/><path class="cls-3" d="M1508.51,902.68a7.34,7.34,0,0,1-.13,1.34,6.64,6.64,0,0,1-4.86,5.07h-3.27a6.65,6.65,0,0,1-4.86-5.07,7.34,7.34,0,0,1-.13-1.34,6.49,6.49,0,0,1,.79-3.13,6.61,6.61,0,0,1,11.67,0A6.49,6.49,0,0,1,1508.51,902.68Z"/><path class="cls-3" d="M1503.52,909.09a6.47,6.47,0,0,1-3.27,0Z"/><path class="cls-3" d="M1497.46,889.81a3.16,3.16,0,0,1-5.77,1.8,3.1,3.1,0,0,1-.56-1.8,3.17,3.17,0,0,1,6.33,0Z"/><path class="cls-3" d="M1513,889.81a3.17,3.17,0,0,1-6.34,0,3.08,3.08,0,0,1,.28-1.29,3.17,3.17,0,0,1,6.06,1.29Z"/><path class="cls-3" d="M1497.46,914.47a3.07,3.07,0,0,1-.26,1.25,3.16,3.16,0,0,1-5.81,0,3.1,3.1,0,0,1-.06-2.34,3.16,3.16,0,0,1,6.13,1.09Z"/><path class="cls-3" d="M1513,914.47a3.07,3.07,0,0,1-.26,1.25,3.16,3.16,0,0,1-5.24.89,2.91,2.91,0,0,1-.58-.89,3.07,3.07,0,0,1-.26-1.25,3.17,3.17,0,0,1,3.17-3.17,3.14,3.14,0,0,1,2.85,1.8A3,3,0,0,1,1513,914.47Z"/><line class="cls-3" x1="1537.96" y1="894.4" x2="1514.44" y2="894.4"/><line class="cls-3" x1="1489.32" y1="894.4" x2="1461.1" y2="894.4"/><circle class="cls-3" cx="1456" cy="780.24" r="2.55"/><circle class="cls-3" cx="1542.3" cy="780.24" r="2.55"/><circle class="cls-3" cx="1463.66" cy="934.49" r="2.55"/><circle class="cls-3" cx="1534.94" cy="934.49" r="2.55"/><circle class="cls-3" cx="1473.32" cy="779.13" r="1.44"/><circle class="cls-3" cx="1473.32" cy="779.13" r="1.44"/><circle class="cls-3" cx="1466.21" cy="889.94" r="1.44"/><circle class="cls-3" cx="1471.74" cy="889.94" r="1.44"/><circle class="cls-3" cx="1477.28" cy="889.94" r="1.44"/><circle class="cls-3" cx="1482.82" cy="889.94" r="1.44"/><circle class="cls-3" cx="1488.35" cy="889.94" r="1.44"/><circle class="cls-3" cx="1516.92" cy="889.94" r="1.44"/><circle class="cls-3" cx="1522.33" cy="889.94" r="1.44"/><circle class="cls-3" cx="1527.74" cy="889.94" r="1.44"/><circle class="cls-3" cx="1533.15" cy="889.94" r="1.44"/><circle class="cls-3" cx="1510.13" cy="779.13" r="1.44"/><rect class="cls-3" x="1566.34" y="899.55" width="18.64" height="27.15"/><polyline class="cls-3" points="1719.64 926.17 1719.64 886.64 1716.56 886.64 1716.56 926.17"/><rect class="cls-3" x="1546.13" y="886.64" width="189.44" height="40.06"/><path class="cls-3" d="M1757.79,884.21c-4.78,14.38-6.94,29.89-7.57,45.74h-.29a23.41,23.41,0,0,1-14.36-4.89V888c4.18-3.84,8.24-5.17,14.36-5.17A19.73,19.73,0,0,1,1757.79,884.21Z"/><line class="cls-3" x1="1728.94" y1="887.24" x2="1728.94" y2="926.77"/><polyline class="cls-3" points="1451.84 927.98 1431.23 926.7 1403.4 937.04 1389.87 937.04 1379.15 948.15 1330.89 948.15 1330.89 928.49 1386.81 928.49 1404.43 928.49 1404.43 917.71 1431.23 917.71 1431.23 926.7"/><circle class="cls-3" cx="1394.3" cy="923.76" r="2.94"/><rect class="cls-3" x="1409.02" y="917.71" width="22.21" height="8.99"/><line class="cls-3" x1="1404.43" y1="928.49" x2="1404.43" y2="936.66"/><line class="cls-3" x1="1330.89" y1="928.49" x2="1330.89" y2="911.3"/><polygon class="cls-3" points="1310.21 856.81 1310.21 882.72 1275.74 882.72 1277.74 879.72 1287.33 865.3 1290.9 859.94 1292.98 856.81 1310.21 856.81"/><path class="cls-3" d="M1310.21,840.66v12.77h3.57V837.22Z"/><path class="cls-3" d="M1310.21,910.11v5.61h-19.15l-3.32-5.61h-1V912h-2.94v3.7h2.94v2H1286v9.67h24.89v-9.67h10.59v-7.6Zm-28.06-9.45h-9.22v5.74h12.62Z"/><path class="cls-3" d="M1321.44,910.11V832.49l-8,.38-5.31,5.32-3.75,3.75-6.64,2.32h-26.81v62.27l3.32,1,.3.75,2.42,6,1,2.6,2.42,6,1,2.6,2.14,5.3,2.37,5.87,35.48,1.79V917.71h-10.59v9.67H1286v-9.67h.76v-2h-2.94V912h2.94v-1.91h1l-2.19-3.71h-12.62v-5.74h9.22l-1.28-2.17-3.77-6.38-1.36-2.3h34.47v20.3Zm-11.23-69.45,3.57-3.44v16.21h-3.57Z"/><polygon class="cls-3" points="1313.78 837.22 1313.78 853.43 1310.21 853.43 1310.21 840.66 1313.78 837.22"/><line class="cls-3" x1="1316.34" y1="837.22" x2="1316.34" y2="853.43"/><rect class="cls-3" x="1307.91" y="919.89" width="5.87" height="14.98"/><polygon class="cls-3" points="1321.44 910.11 1321.44 917.71 1286.72 917.71 1286.72 910.11 1287.74 910.11 1291.06 915.72 1310.21 915.72 1310.21 910.11 1321.44 910.11"/><rect class="cls-3" x="1285.96" y="917.71" width="24.89" height="9.67"/><rect class="cls-3" x="1313.68" y="920.83" width="1.66" height="7.66"/><rect class="cls-3" x="1283.78" y="912.02" width="2.94" height="3.7"/><polygon class="cls-3" points="1321.44 853.43 1321.44 859.94 1310.21 859.94 1310.21 856.81 1292.98 856.81 1290.9 859.94 1288.51 859.94 1288.51 853.43 1321.44 853.43"/><rect class="cls-3" x="1286.72" y="855.09" width="1.79" height="3.45"/><polygon class="cls-3" points="1288.51 853.43 1288.51 859.94 1290.9 859.94 1287.33 865.3 1274.08 865.3 1274.08 848.06 1294.89 848.06 1294.89 853.43 1288.51 853.43"/><polygon class="cls-3" points="1286.06 867.21 1277.74 879.72 1274.08 879.72 1274.08 867.21 1286.06 867.21"/><polygon class="cls-3" points="1310.21 889.81 1310.21 915.72 1291.06 915.72 1287.74 910.11 1285.55 906.4 1282.15 900.66 1280.87 898.49 1277.1 892.11 1275.74 889.81 1310.21 889.81"/><polygon class="cls-3" points="1280.87 898.49 1272.93 898.49 1272.93 892.11 1277.1 892.11 1280.87 898.49"/><polygon class="cls-3" points="1285.55 906.4 1272.93 906.4 1272.93 900.66 1282.15 900.66 1285.55 906.4"/><rect class="cls-3" x="1310.21" y="862.11" width="11.23" height="5.11"/><rect class="cls-3" x="1310.21" y="871.8" width="11.23" height="5.11"/><rect class="cls-3" x="1310.21" y="891.59" width="11.23" height="5.11"/><rect class="cls-3" x="1310.21" y="900.21" width="10.74" height="5.11"/><rect class="cls-3" x="1310.21" y="908.3" width="11.23" height="1.66"/><polyline class="cls-3" points="1241.45 922.66 1240 919.89 1233.36 919.89 1233.36 923.76 1188 923.76 1187.4 891.59 1181.02 891.59 1181.02 884.06 1175.15 884.06 1175.15 827.13 1327.32 827.13"/><polyline class="cls-3" points="1242.95 925.51 1243.57 926.7 1249.83 928.98"/><polyline class="cls-3" points="1254.81 930.79 1260.68 932.93 1260.68 936.66 1264.51 936.66 1272.93 936.66 1283.78 940.49 1283.78 953.26 1327.32 953.26 1330.89 948.15"/><rect class="cls-3" x="1194.64" y="827.13" width="4.08" height="20.93"/><polygon class="cls-3" points="1175.15 838.49 1179.23 832.49 1179.23 827.13 1194.64 827.13 1194.64 833.64 1175.15 833.64 1175.15 838.49"/><rect class="cls-3" x="1194.64" y="859.04" width="51.87" height="4.73"/><rect class="cls-3" x="1194.64" y="866.19" width="51.87" height="4.72"/><rect class="cls-3" x="1194.64" y="873.34" width="51.87" height="4.72"/><polygon class="cls-3" points="1246.51 880.49 1246.51 885.21 1194.64 885.21 1194.64 883.16 1194.64 880.49 1246.51 880.49"/><polygon class="cls-3" points="1246.51 887.64 1246.51 892.36 1194.64 892.36 1194.64 888.13 1194.64 887.64 1246.51 887.64"/><rect class="cls-3" x="1194.64" y="894.79" width="51.87" height="4.72"/><polyline class="cls-3" points="1246.51 861.4 1261.7 868.55 1246.51 868.55"/><polyline class="cls-3" points="1246.51 875.7 1261.7 868.55 1246.51 882.72"/><polyline class="cls-3" points="1246.51 889.81 1261.7 868.55 1246.51 897.15"/><circle class="cls-10" cx="1243.77" cy="903.53" r="2.39"/><circle class="cls-10" cx="1243.77" cy="910.11" r="2.39"/><circle class="cls-10" cx="1243.77" cy="916.69" r="2.39"/><path class="cls-10" d="M1246.16,923.27a2.39,2.39,0,0,1-2.4,2.39,2.16,2.16,0,0,1-.81-.15l-1.5-2.85a2.4,2.4,0,0,1,4.71.61Z"/><rect class="cls-3" x="1198.72" y="827.13" width="128.6" height="5.36"/><rect class="cls-10" x="1208.09" y="838.49" width="18.77" height="8.94"/><rect class="cls-3" x="1199.28" y="832.81" width="9.45" height="5.68"/><rect class="cls-3" x="1208.72" y="833.26" width="18.89" height="2.39"/><rect class="cls-3" x="1227.51" y="832.81" width="10.98" height="7.21"/><rect class="cls-3" x="1194.64" y="848.06" width="5.53" height="10.98"/><rect class="cls-10" x="1222.64" y="848.06" width="1.53" height="10.47"/><rect class="cls-10" x="1261.53" y="856.3" width="4.21" height="27.83"/><rect class="cls-3" x="1265.74" y="858.32" width="5.15" height="2.74"/><rect class="cls-3" x="1265.74" y="862.74" width="5.15" height="2.55"/><rect class="cls-3" x="1265.74" y="867.47" width="5.15" height="2.55"/><rect class="cls-3" x="1265.74" y="872.2" width="5.15" height="2.55"/><rect class="cls-3" x="1265.74" y="876.92" width="5.15" height="2.55"/><rect class="cls-3" x="1265.74" y="880.65" width="5.15" height="2.55"/><polyline class="cls-3" points="1194.64 861.66 1184.34 868.75 1194.64 868.75"/><polyline class="cls-3" points="1194.64 875.7 1184.34 868.75 1194.64 883.16"/><polyline class="cls-3" points="1194.64 890.53 1184.34 868.75 1194.64 897.33"/><rect class="cls-10" x="1180.3" y="856.49" width="4.21" height="27.83" transform="translate(2364.81 1740.81) rotate(-180)"/><rect class="cls-3" x="1175.15" y="858.51" width="5.15" height="2.74" transform="translate(2355.45 1719.77) rotate(-180)"/><rect class="cls-3" x="1175.15" y="862.94" width="5.15" height="2.55" transform="translate(2355.45 1728.42) rotate(-180)"/><rect class="cls-3" x="1175.15" y="867.66" width="5.15" height="2.55" transform="translate(2355.45 1737.88) rotate(-180)"/><rect class="cls-3" x="1175.15" y="872.39" width="5.15" height="2.55" transform="translate(2355.45 1747.33) rotate(-180)"/><rect class="cls-3" x="1175.15" y="877.11" width="5.15" height="2.55" transform="translate(2355.45 1756.78) rotate(-180)"/><rect class="cls-3" x="1175.15" y="880.84" width="5.15" height="2.55" transform="translate(2355.45 1764.23) rotate(-180)"/><rect class="cls-3" x="1275.74" y="833.64" width="14.56" height="4.85"/><rect class="cls-3" x="1275.74" y="842.53" width="14.56" height="4.85"/><polygon class="cls-3" points="1308.09 836.06 1308.09 838.19 1304.34 841.94 1297.7 844.26 1279.24 844.26 1279.24 836.06 1308.09 836.06"/><path class="cls-3" d="M1232.47,899.51v0Z"/><polyline class="cls-3" points="1254.81 903.95 1257.36 905.32 1270.89 906.53"/><line class="cls-3" x1="1249.83" y1="901.29" x2="1246.51" y2="899.51"/><polygon class="cls-3" points="1254.81 903.95 1254.81 930.79 1249.83 928.98 1249.83 901.29 1254.81 903.95"/><rect class="cls-3" x="1235.02" y="899.51" width="2.68" height="20.38"/><polygon class="cls-3" points="1276.93 914.3 1254.81 914.3 1254.81 908.3 1274.51 908.3 1276.93 914.3"/><polygon class="cls-3" points="1280.4 922.89 1254.81 922.89 1254.81 916.9 1277.98 916.9 1280.4 922.89"/><polygon class="cls-3" points="1283.59 930.79 1254.81 930.79 1254.81 925.49 1281.45 925.49 1283.59 930.79"/><rect class="cls-3" x="1302.61" y="760.23" width="24.71" height="72.26"/><rect class="cls-3" x="1236.36" y="760.23" width="42.88" height="72.26"/><polygon class="cls-3" points="1179.23 764.21 1179.23 819.72 1175.15 819.72 1175.15 838.49 1006.38 838.49 1006.38 764.21 1179.23 764.21"/><circle class="cls-3" cx="1056.28" cy="878.51" r="29.21"/><circle class="cls-3" cx="1056.28" cy="878.51" r="35.4"/><circle class="cls-3" cx="1056" cy="877.85" r="6.04"/><line class="cls-3" x1="1056.28" y1="849.3" x2="1056.28" y2="907.72"/><line class="cls-3" x1="1061.02" y1="849.69" x2="1051.53" y2="907.33"/><line class="cls-3" x1="1067.25" y1="851.54" x2="1045.09" y2="905.58"/><line class="cls-3" x1="1042.64" y1="852.09" x2="1069.36" y2="904.04"/><line class="cls-3" x1="1062.65" y1="906.5" x2="1049.35" y2="849.63"/><line class="cls-3" x1="1037.17" y1="855.74" x2="1074.84" y2="900.39"/><line class="cls-3" x1="1032.65" y1="860.53" x2="1079.36" y2="895.6"/><line class="cls-3" x1="1029.31" y1="866.2" x2="1082.69" y2="889.93"/><line class="cls-3" x1="1038.69" y1="901.59" x2="1073.31" y2="854.54"/><line class="cls-3" x1="1027.33" y1="872.48" x2="1084.67" y2="883.65"/><line class="cls-3" x1="1026.81" y1="879.03" x2="1085.19" y2="877.09"/><line class="cls-3" x1="1027.77" y1="885.55" x2="1084.23" y2="870.58"/><line class="cls-3" x1="1033.86" y1="897.12" x2="1078.14" y2="859.01"/><line class="cls-3" x1="1030.16" y1="891.68" x2="1081.84" y2="864.45"/><circle class="cls-3" cx="1134.36" cy="877.85" r="29.21"/><path class="cls-3" d="M1169.76,877.85a35.4,35.4,0,1,1-58.32-27l0,0a35.09,35.09,0,0,1,5.3-3.73h0a35.4,35.4,0,0,1,53,30.74Z"/><circle class="cls-3" cx="1134.09" cy="877.18" r="6.04"/><line class="cls-3" x1="1134.36" y1="848.64" x2="1134.36" y2="907.05"/><line class="cls-3" x1="1139.11" y1="849.03" x2="1129.61" y2="906.66"/><line class="cls-3" x1="1145.33" y1="850.87" x2="1123.17" y2="904.92"/><line class="cls-3" x1="1120.73" y1="851.43" x2="1147.44" y2="903.37"/><line class="cls-3" x1="1140.74" y1="905.84" x2="1127.43" y2="848.96"/><line class="cls-3" x1="1115.25" y1="855.08" x2="1152.92" y2="899.72"/><line class="cls-3" x1="1110.73" y1="859.86" x2="1157.44" y2="894.94"/><line class="cls-3" x1="1107.4" y1="865.54" x2="1160.77" y2="889.27"/><line class="cls-3" x1="1116.78" y1="900.92" x2="1151.39" y2="853.88"/><line class="cls-3" x1="1105.42" y1="871.81" x2="1162.75" y2="882.99"/><line class="cls-3" x1="1104.9" y1="878.37" x2="1163.27" y2="876.43"/><line class="cls-3" x1="1105.85" y1="884.88" x2="1162.32" y2="869.92"/><line class="cls-3" x1="1111.95" y1="896.45" x2="1156.22" y2="858.35"/><line class="cls-3" x1="1108.25" y1="891.01" x2="1159.93" y2="863.79"/><rect class="cls-3" x="1049.35" y="913.87" width="3.24" height="0.34"/><rect class="cls-3" x="1059.4" y="913.87" width="3.24" height="0.34"/><rect class="cls-3" x="1049.35" y="914.21" width="3.24" height="4.83"/><rect class="cls-3" x="1047.74" y="914.21" width="1.61" height="2.81"/><rect class="cls-3" x="1059.4" y="914.21" width="3.24" height="4.83"/><rect class="cls-3" x="1052.59" y="914.21" width="6.81" height="2.81"/><rect class="cls-3" x="1062.64" y="914.21" width="9.1" height="2.81"/><rect class="cls-3" x="1128.72" y="913.2" width="3.24" height="4.83"/><rect class="cls-3" x="1127.11" y="913.2" width="1.61" height="2.81"/><rect class="cls-3" x="1138.77" y="913.2" width="3.24" height="4.83"/><rect class="cls-3" x="1131.96" y="913.2" width="6.81" height="2.81"/><rect class="cls-3" x="1142.01" y="913.2" width="9.1" height="2.81"/><polygon class="cls-3" points="1006.38 838.49 1029.75 855.08 1032.65 852.15 1013.19 838.49 1006.38 838.49"/><polygon class="cls-3" points="1095.57 838.49 1090.92 844.25 1088.61 847.12 1082.69 854.45 1079.19 851.54 1083.01 847.12 1085.49 844.25 1090.47 838.49 1095.57 838.49"/><polygon class="cls-3" points="1115.25 847.43 1111.47 850.85 1111.44 850.87 1106.63 847.12 1102.95 844.25 1095.57 838.49 1104.25 838.49 1111.34 844.25 1114.87 847.12 1115.25 847.43"/><polygon class="cls-3" points="1152.47 847.43 1160.77 838.49 1165.36 838.49 1156.22 850.01 1152.47 847.43"/><line class="cls-3" x1="1088.86" y1="892.36" x2="1102.07" y2="892.36"/><line class="cls-3" x1="1106.36" y1="899.51" x2="1085.19" y2="899.51"/><rect class="cls-3" x="1012.51" y="768.83" width="159.66" height="47.15" rx="3.66"/><line class="cls-3" x1="1012.51" y1="776.66" x2="1172.17" y2="776.66"/><line class="cls-3" x1="1023.4" y1="768.83" x2="1023.4" y2="815.98"/><line class="cls-3" x1="1029.31" y1="768.83" x2="1029.31" y2="815.98"/><line class="cls-3" x1="1035.22" y1="768.83" x2="1035.22" y2="815.98"/><line class="cls-3" x1="1041.13" y1="768.83" x2="1041.13" y2="815.98"/><line class="cls-3" x1="1047.04" y1="768.83" x2="1047.04" y2="815.98"/><line class="cls-3" x1="1052.95" y1="768.83" x2="1052.95" y2="815.98"/><line class="cls-3" x1="1058.86" y1="768.83" x2="1058.86" y2="815.98"/><line class="cls-3" x1="1064.77" y1="768.83" x2="1064.77" y2="815.98"/><line class="cls-3" x1="1070.68" y1="768.83" x2="1070.68" y2="815.98"/><line class="cls-3" x1="1117.95" y1="768.83" x2="1117.95" y2="815.98"/><line class="cls-3" x1="1123.86" y1="768.83" x2="1123.86" y2="815.98"/><line class="cls-3" x1="1129.77" y1="768.83" x2="1129.77" y2="815.98"/><line class="cls-3" x1="1135.68" y1="768.83" x2="1135.68" y2="815.98"/><line class="cls-3" x1="1141.59" y1="768.83" x2="1141.59" y2="815.98"/><line class="cls-3" x1="1147.5" y1="768.83" x2="1147.5" y2="815.98"/><line class="cls-3" x1="1153.41" y1="768.83" x2="1153.41" y2="815.98"/><line class="cls-3" x1="1159.32" y1="768.83" x2="1159.32" y2="815.98"/><line class="cls-3" x1="1165.23" y1="768.83" x2="1165.23" y2="815.98"/><path class="cls-3" d="M1112.62,819.29v5.78a7.48,7.48,0,0,1-7.19,7.74h-21.24a7.48,7.48,0,0,1-7.19-7.74v-5.78a7.26,7.26,0,0,1,.06-.93h35.51A7.25,7.25,0,0,1,1112.62,819.29Z"/><path class="cls-3" d="M1169.94,766.28H1011.58a5.14,5.14,0,0,0-5.2,5.1v41.88a5.14,5.14,0,0,0,5.2,5.1h158.36a5.15,5.15,0,0,0,5.21-5.1V771.38A5.15,5.15,0,0,0,1169.94,766.28Zm2.17,46a3.7,3.7,0,0,1-3.73,3.66H1013.15a3.7,3.7,0,0,1-3.73-3.66V772.49a3.7,3.7,0,0,1,3.73-3.66h155.23a3.7,3.7,0,0,1,3.73,3.66Z"/><path class="cls-3" d="M1109.7,821.65V825a5.49,5.49,0,0,1-5.49,5.49H1085.4a5.49,5.49,0,0,1-5.49-5.49v-3.31a7.59,7.59,0,0,1,.74-3.29H1109A7.73,7.73,0,0,1,1109.7,821.65Z"/><line class="cls-3" x1="1061.02" y1="849.69" x2="1051.53" y2="907.33"/><path class="cls-3" d="M1089.36,818.55h11.43a0,0,0,0,1,0,0v4.14a5.71,5.71,0,0,1-5.71,5.71h0a5.71,5.71,0,0,1-5.71-5.71v-4.14A0,0,0,0,1,1089.36,818.55Z"/><rect class="cls-3" x="1085.17" y="803.51" width="20.04" height="9.19" rx="3.19"/><rect class="cls-10" x="1091.56" y="800.28" width="7.02" height="15.66" rx="3.51"/><path class="cls-3" d="M1094.47,780.28h0A14.55,14.55,0,0,1,1109,794.83V816a0,0,0,0,1,0,0h-29.11a0,0,0,0,1,0,0V794.83A14.55,14.55,0,0,1,1094.47,780.28Z"/><rect class="cls-3" x="1093.7" y="769.88" width="2.43" height="4.93"/><circle class="cls-10" cx="1257.9" cy="777.31" r="3.8"/><circle class="cls-10" cx="1270.89" cy="776.66" r="3.8"/><circle class="cls-10" cx="1270.89" cy="789.63" r="3.8"/><circle class="cls-10" cx="1270.89" cy="802.6" r="3.8"/><circle class="cls-10" cx="1270.89" cy="815.57" r="3.8"/><circle class="cls-10" cx="1257.9" cy="789.63" r="3.8"/><circle class="cls-10" cx="1258.02" cy="802.6" r="3.8"/><circle class="cls-10" cx="1257.8" cy="816.76" r="3.8"/><circle class="cls-10" cx="1310.28" cy="776.89" r="3.38"/><circle class="cls-3" cx="1310.21" cy="791.31" r="3.38"/><circle class="cls-3" cx="1310.28" cy="802.6" r="3.38"/><circle class="cls-10" cx="1310.21" cy="815.57" r="3.38"/><circle class="cls-3" cx="1321.44" cy="802.6" r="3.38"/><circle class="cls-10" cx="1321.44" cy="815.57" r="3.38"/><circle class="cls-3" cx="1321.44" cy="791.31" r="3.38"/><circle class="cls-10" cx="1321.44" cy="777.31" r="3.38"/><circle class="cls-10" cx="1081.45" cy="719.91" r="3.38"/><circle class="cls-3" cx="1095.87" cy="719.98" r="3.38"/><circle class="cls-3" cx="1107.15" cy="719.91" r="3.38"/><circle class="cls-10" cx="1120.12" cy="719.98" r="3.38"/><circle class="cls-3" cx="1107.15" cy="708.75" r="3.38"/><circle class="cls-10" cx="1120.12" cy="708.75" r="3.38"/><circle class="cls-3" cx="1095.87" cy="708.75" r="3.38"/><circle class="cls-10" cx="1081.87" cy="708.75" r="3.38"/><circle class="cls-10" cx="1081.45" cy="750.78" r="3.38"/><circle class="cls-3" cx="1095.87" cy="750.84" r="3.38"/><circle class="cls-3" cx="1107.15" cy="750.78" r="3.38"/><circle class="cls-10" cx="1120.12" cy="750.84" r="3.38"/><circle class="cls-3" cx="1107.15" cy="739.61" r="3.38"/><circle class="cls-10" cx="1120.12" cy="739.61" r="3.38"/><circle class="cls-3" cx="1095.87" cy="739.61" r="3.38"/><circle class="cls-10" cx="1081.87" cy="739.61" r="3.38"/><circle class="cls-10" cx="1019.86" cy="750.78" r="3.38"/><circle class="cls-3" cx="1034.28" cy="750.84" r="3.38"/><circle class="cls-3" cx="1045.56" cy="750.78" r="3.38"/><circle class="cls-10" cx="1058.53" cy="750.84" r="3.38"/><circle class="cls-3" cx="1045.56" cy="739.61" r="3.38"/><circle class="cls-10" cx="1058.53" cy="739.61" r="3.38"/><circle class="cls-3" cx="1034.28" cy="739.61" r="3.38"/><circle class="cls-10" cx="1020.27" cy="739.61" r="3.38"/><circle class="cls-10" cx="1020.27" cy="718.98" r="3.38"/><circle class="cls-3" cx="1034.69" cy="719.04" r="3.38"/><circle class="cls-3" cx="1045.98" cy="718.98" r="3.38"/><circle class="cls-10" cx="1058.95" cy="719.04" r="3.38"/><circle class="cls-3" cx="1045.98" cy="707.81" r="3.38"/><circle class="cls-10" cx="1058.95" cy="707.81" r="3.38"/><circle class="cls-3" cx="1034.69" cy="707.81" r="3.38"/><circle class="cls-10" cx="1020.69" cy="707.81" r="3.38"/><circle class="cls-10" cx="1006.27" cy="718.98" r="3.38"/><circle class="cls-3" cx="1020.69" cy="719.04" r="3.38"/><circle class="cls-3" cx="1020.69" cy="707.81" r="3.38"/><circle class="cls-10" cx="1006.69" cy="707.81" r="3.38"/><path class="cls-3" d="M1238.49,759v68.12h-36.88V759A18.44,18.44,0,0,1,1217,740.82a17.87,17.87,0,0,1,3-.25,18.35,18.35,0,0,1,7.31,1.51,18.63,18.63,0,0,1,5.73,3.89A18.38,18.38,0,0,1,1238.49,759Z"/><polyline class="cls-3" points="1217.02 731.64 1217.02 733.43 1217.02 740.82"/><path class="cls-3" d="M1227.36,733.43v8.65a18.35,18.35,0,0,0-7.31-1.51,17.87,17.87,0,0,0-3,.25v-7.39Z"/><rect class="cls-3" x="1217.02" y="722.57" width="5.74" height="9.07"/><path class="cls-3" d="M1226.93,727.11a3.92,3.92,0,0,1-4.08,3.74h-.09v-7.49h.09A3.93,3.93,0,0,1,1226.93,727.11Z"/><polyline class="cls-3" points="1222.76 740.73 1222.76 715.94 1217.02 715.94 1217.02 722.57"/><line class="cls-3" x1="1204.45" y1="749.18" x2="1235.65" y2="749.18"/><line class="cls-3" x1="1218.9" y1="740.61" x2="1218.9" y2="827.13"/><path class="cls-3" d="M1040,827.38h21.37a4.77,4.77,0,0,1,4.77,4.77v6.34a0,0,0,0,1,0,0h-30.9a0,0,0,0,1,0,0v-6.34A4.77,4.77,0,0,1,1040,827.38Z"/><circle class="cls-3" cx="1028.55" cy="832.06" r="2.61"/><path class="cls-3" d="M1026.18,824.4h39.6a2.58,2.58,0,0,1,2.58,2.58v11.5a0,0,0,0,1,0,0H1023.6a0,0,0,0,1,0,0V827A2.58,2.58,0,0,1,1026.18,824.4Z"/><circle class="cls-3" cx="1020.51" cy="823.3" r="1.7"/><polygon class="cls-3" points="1066.13 844.25 1085.49 844.25 1083.01 847.12 1071.99 847.12 1066.13 844.25"/><polygon class="cls-3" points="1106.63 847.12 1088.61 847.12 1090.92 844.25 1102.95 844.25 1106.63 847.12"/><polygon class="cls-3" points="1123.17 844.25 1123.11 844.28 1116.8 847.11 1116.77 847.12 1114.87 847.12 1111.34 844.25 1123.17 844.25"/><path class="cls-7" d="M864.34,736V756.4a109.59,109.59,0,0,1,27.57,1,103.77,103.77,0,0,1,19.41,5.1c18.81,7.17,30.54,19.53,35.49,24.85,19.64,21.15,25.49,44.88,29.62,61.62,3.82,15.53,4.88,29,6.12,44.94,1.14,14.53,1.27,26.63,1.36,35.74.16,14.62-.18,27.08-.59,36.6h20.42l2.64-.77V732.36l-61.52.21c-90,.77-153.9,1-165.8,0a44.78,44.78,0,0,0-17.36,1.71,43.55,43.55,0,0,0-11.91,5.78"/><path class="cls-7" d="M817.87,700.73h1.32l138.52-1.53h172.67v61"/><path class="cls-7" d="M553.87,908.63H418.55l-8.17,11.71,135.32,1.07a28.26,28.26,0,0,0,6.48-2.45,26.48,26.48,0,0,0,6.29-5.28,21,21,0,0,0,3-5.28c4.46-10.56,7.59-30,9.21-37.87,3.78-18.17,11.39-31.16,16.91-40.59A165.09,165.09,0,0,1,608,802.36c8.6-9.44,14.56-13.85,26.55-24,1.42-1.2,3-2.51,4.58-3.91"/><path class="cls-3" d="M394.31,259.37,351.4,538.62V774.45H306.55a62.32,62.32,0,0,1-7.83-12.26,74.84,74.84,0,0,1-5.79-19.4c-1.91-12.93-3.28-64.66-2.42-135.15,0-.91,0-1.82,0-2.73q3.45-9.67,6.81-19.74,3.28-9.82,6.27-19.4c.19-.57.36-1.14.54-1.71l4.08-48.17L311.83,498l3.63-16.09.54-2.41a20.64,20.64,0,0,0,2.72.83c9.44,2.14,18.54-3.53,19.24-4,0-3.86.05-7.71.08-11.57q.12-18,.26-35.94a53.09,53.09,0,0,0-10.58-1.42l1.15-5.09a23.18,23.18,0,0,0,8.64-3.61,5.24,5.24,0,0,0,2.27-4.44q-.33-18.71-.67-37.42l6.42-28.49q6.56-42.56,13.09-85.11c.31-2,.61-3.91.91-5.87l6.05.34,24.6,1.38Z"/><path class="cls-3" d="M778.55,253.33V434.8a13.69,13.69,0,0,1-13.69,13.69H616.38a13.77,13.77,0,0,0-6.2,1.48l-88.49,45a13.61,13.61,0,0,1-6.48,1.48L395.77,494a13.7,13.7,0,0,1-13.33-15.22l10.3-91.52,14.32-127.13.93-8.28a13.69,13.69,0,0,1,13.61-12.16H764.86A13.69,13.69,0,0,1,778.55,253.33Z"/><path class="cls-3" d="M998.13,194.76l-.93,261.89q-.44,121.29-.86,242.56H817.89l5.86-455.78a19.33,19.33,0,0,0-19.35-19.58l-401.6.71-4.1,26.74-3.12-.17-14.65-.79-20.15-1.08,0-.22c3-16.83-.49-22.2,1.14-32.64.39-2.51,3-17.84,14.29-23.23a19.45,19.45,0,0,1,6.06-1.74,2539.87,2539.87,0,0,1,308.41-17.6l11,.08A2432.71,2432.71,0,0,1,998.13,194.76Z"/><path class="cls-3" d="M508.69,179.53l8.81-12.06a585.85,585.85,0,0,1,213.83,2.21l2.22,4.75c-36-.82-73.57-.89-112.54,0S544.6,177.08,508.69,179.53Z"/><path class="cls-3" d="M772.34,699.21a202.54,202.54,0,0,0-50.47,11.24,210.82,210.82,0,0,0-41.19,20.42,261.33,261.33,0,0,0-53.11,43.58h11.56c8.08-6.93,18.57-16.24,30.65-27.75a199.75,199.75,0,0,1,35.75-22.47c3.6-1.75,18.42-8.86,41.36-14.8a276.23,276.23,0,0,1,71-8.7l0-1.52ZM396.11,247.7,394,259.44l3.12.17,5.66-35.05h-3.14Z"/><path class="cls-3" d="M402.8,224.56l-4.1,26.74-1.26,8.24-3.13-.17L351.4,538.62V774.45H627.57a261.33,261.33,0,0,1,53.11-43.58,210.82,210.82,0,0,1,41.19-20.42,202.54,202.54,0,0,1,50.47-11.24h45.55l5.86-456.15a19,19,0,0,0-19-19.21ZM778.55,434.8a13.69,13.69,0,0,1-13.69,13.69H616.38a13.77,13.77,0,0,0-6.2,1.48l-88.49,45a13.61,13.61,0,0,1-6.48,1.48L395.77,494a13.7,13.7,0,0,1-13.33-15.22l10.3-91.52,14.32-127.13.93-8.28a13.69,13.69,0,0,1,13.61-12.16H764.86a13.69,13.69,0,0,1,13.69,13.69Z"/><path class="cls-3" d="M776.08,256V433.24a13.45,13.45,0,0,1-13.52,13.37H615.94a13.72,13.72,0,0,0-6.13,1.45L522.43,492a13.6,13.6,0,0,1-6.41,1.45L398.07,491a13.42,13.42,0,0,1-13.16-14.87L395,387.21l15.11-132.7a13.47,13.47,0,0,1,13.44-11.88h339A13.45,13.45,0,0,1,776.08,256Z"/><path class="cls-3" d="M817.87,599.64h-48A17.36,17.36,0,0,0,752.51,617v29.11a17.36,17.36,0,0,0,17.36,17.36h48Z"/><rect class="cls-10" x="811.74" y="605.6" width="6.13" height="52.43"/><path class="cls-3" d="M351.55,565.77v41.87h-61c0-.91,0-1.82,0-2.73q3.45-9.67,6.81-19.74,3.28-9.82,6.27-19.4Z"/><path class="cls-3" d="M636.3,925.84a90.41,90.41,0,0,0-46.52,18.48H297.7a12.26,12.26,0,0,1-12.26-12.26V920.89a12.23,12.23,0,0,1,12.26-12.26h9.91a15.37,15.37,0,0,0,0-30.72h-7.19a12.26,12.26,0,0,1-12.25-12.25v-5.45a12.26,12.26,0,0,1,12.25-12.26h8.12a15.37,15.37,0,0,0,15.37-15.37v-3.93a15.37,15.37,0,0,0-15.37-15.37h-6a12.17,12.17,0,0,1-8.66-3.59c-.18-.18-.35-.37-.52-.56a12.26,12.26,0,0,1,9.18-20.37h21.41V774.45l313.53-.57"/><path class="cls-3" d="M307.61,813.26v34.67h-7.19a12.16,12.16,0,0,0-7.1,2.27V809.11c.17.19.34.38.52.56a12.17,12.17,0,0,0,8.66,3.59Z"/><path class="cls-3" d="M307.61,877.9v30.72H297.7a12.25,12.25,0,0,0-4.38.8V875.62a12.16,12.16,0,0,0,7.1,2.27h7.19Z"/><path class="cls-3" d="M456.17,774.53c-41.59-3-72.92,2.9-82.72,11.24a41.25,41.25,0,0,0-11,14.55,34,34,0,0,0-2.3,13c.06,12.45-.15,62.47-.17,131"/><path class="cls-1" d="M398.7,251.3l-1.26,8.24-3.13-.17-4.13-.23-24.6-1.38-6.05-.34L334.6,256a9.4,9.4,0,0,0-9.92,9.38v2.83H315v-4a16.51,16.51,0,0,1,17.4-16.49l28.4,1.53,20.15,1.08,14.65.79Z"/><path class="cls-1" d="M339.78,414.31a5.24,5.24,0,0,1-2.27,4.44,23.18,23.18,0,0,1-8.64,3.61,20.23,20.23,0,0,1-4.36.38c-.45,0-.9,0-1.33-.07l-2.53-.36a24.44,24.44,0,0,1-13.4-8.37,7.54,7.54,0,0,1-1.77-5l1.67-130.21c.2-1.32,1.08-6.1,5.1-8.85,6.15-4.19,14.1.17,15.66,1a21,21,0,0,1,9.53,11.92q.84,47,1.67,94.06Q339.45,395.61,339.78,414.31Z"/><path class="cls-1" d="M323.18,422.67a20,20,0,0,1-2.53-.36Z"/><path class="cls-1" d="M338.3,428.87q-.14,18-.26,35.94c0,3.86-.05,7.71-.08,11.57-.7.44-9.8,6.11-19.24,4a20.64,20.64,0,0,1-2.72-.83,24.23,24.23,0,0,1-5.28-2.76,20,20,0,0,1-4.59-4.74,61.4,61.4,0,0,1-2.07-21.88,58.87,58.87,0,0,1,3.09-14.48,10.25,10.25,0,0,1,2.38-3.46,14.3,14.3,0,0,1,3.74-2.56,22.21,22.21,0,0,1,8-2h.16l2.3-.14.77,0c.92,0,2,0,3.21,0A53.09,53.09,0,0,1,338.3,428.87Z"/><path class="cls-1" d="M323.74,427.49l-2.3.14C322.24,427.56,323,427.52,323.74,427.49Z"/><polygon class="cls-1" points="323.74 422.75 323.74 427.49 321.44 427.63 321.37 427.63 321.28 427.64 321.07 427.65 320.65 422.31 323.18 422.67 323.74 422.75"/><path class="cls-3" d="M382.36,208a2704.6,2704.6,0,0,1,580.06,0"/><path class="cls-10" d="M545.7,921.41l-135.32-1.07,8.17-11.71,142.9-.23a21.5,21.5,0,0,1-4.29,6.69A22.19,22.19,0,0,1,545.7,921.41Z"/><polyline class="cls-3" points="406.55 599.64 543.66 599.64 621.02 559.3 715.23 559.3"/><polyline class="cls-3" points="406.55 625.81 543.66 625.81 621.02 585.47 715.23 585.47"/><polyline class="cls-3" points="406.55 651.98 543.66 651.98 621.02 611.64 715.23 611.64"/><line class="cls-3" x1="996.34" y1="699.21" x2="996.34" y2="732.39"/><path class="cls-3" d="M315.46,481.93a43.21,43.21,0,0,0,13.31,7.67c13.47,4.79,21.1,2.85,25.49,1.35l35.92-231.81"/><path class="cls-3" d="M365.58,257.76a59.29,59.29,0,0,0-7,5.53"/><polyline class="cls-3" points="354.81 773.74 354.81 537.85 397.44 259.54"/></svg>