<svg id="Layer_1" data-name="Layer 1" xmlns="http://www.w3.org/2000/svg" viewBox="0 0 972.77 885.45"><defs><style>.cls-1,.cls-3{fill:none;stroke:#000;stroke-width:2px;}.cls-1{stroke-miterlimit:10;}.cls-2{fill:#1d1d1b;}.cls-3{stroke-linecap:round;stroke-linejoin:round;}</style></defs><circle class="cls-1" cx="478.6" cy="432.68" r="19"/><circle class="cls-2" cx="478.15" cy="432.34" r="14.85"/><circle class="cls-1" cx="479.6" cy="432.68" r="31"/><circle class="cls-1" cx="479.6" cy="432.68" r="38"/><circle class="cls-1" cx="479.6" cy="432.68" r="50"/><circle class="cls-1" cx="479.6" cy="432.68" r="70"/><circle class="cls-1" cx="479.1" cy="432.18" r="80.5"/><circle class="cls-1" cx="479.1" cy="432.18" r="86.5"/><circle class="cls-1" cx="479.6" cy="432.68" r="105"/><circle class="cls-1" cx="479.6" cy="432.68" r="118"/><circle class="cls-1" cx="479.6" cy="432.68" r="151"/><circle class="cls-1" cx="479.6" cy="432.68" r="169"/><path class="cls-1" d="M681.73,432.34c0,111.69-90.55,202.23-202.24,202.23S277.27,544,277.27,432.34s90.54-202.23,202.22-202.23S681.73,320.65,681.73,432.34Z"/><path class="cls-1" d="M681.73,432.34c0,111.69-90.55,202.23-202.24,202.23S277.27,544,277.27,432.34s90.54-202.23,202.22-202.23S681.73,320.65,681.73,432.34Z"/><path class="cls-1" d="M681.73,432.34c0,111.69-90.55,202.23-202.24,202.23S277.27,544,277.27,432.34s90.54-202.23,202.22-202.23S681.73,320.65,681.73,432.34Z"/><circle class="cls-1" cx="477.6" cy="476.68" r="4"/><circle class="cls-1" cx="452.6" cy="467.68" r="4"/><circle class="cls-1" cx="437.6" cy="443.68" r="4"/><circle class="cls-1" cx="437.6" cy="418.68" r="4"/><circle class="cls-1" cx="454.6" cy="395.68" r="4"/><circle class="cls-1" cx="479.6" cy="387.68" r="4"/><circle class="cls-1" cx="506.6" cy="398.68" r="4"/><circle class="cls-1" cx="521.6" cy="420.68" r="4"/><circle class="cls-1" cx="506.6" cy="466.68" r="4"/><circle class="cls-1" cx="520.6" cy="447.68" r="4"/><circle class="cls-1" cx="529.6" cy="399.68" r="5"/><circle class="cls-1" cx="539.6" cy="435.68" r="5"/><circle class="cls-1" cx="458.6" cy="488.68" r="5"/><circle class="cls-1" cx="500.6" cy="377.68" r="5"/><circle class="cls-1" cx="463.6" cy="375.68" r="5"/><circle class="cls-1" cx="432.6" cy="395.68" r="5"/><circle class="cls-1" cx="420.6" cy="432.68" r="5"/><circle class="cls-1" cx="526.6" cy="469.68" r="5"/><circle class="cls-1" cx="495.6" cy="489.68" r="5"/><circle class="cls-1" cx="429.6" cy="464.68" r="5"/><path class="cls-3" d="M575.41,230.44q-7.7-3.7-15.69-6.79A224.76,224.76,0,0,0,422.35,216c-3.55.92-7.07,1.92-10.54,3-2.08.65-4.16,1.33-6.22,2.06-2.78,1-5.53,2-8.25,3.06A220.34,220.34,0,0,0,367,238.81c-2.29,1.32-4.54,2.69-6.77,4.1l-1.94,1.23c-.89.56-1.77,1.14-2.65,1.73a224.38,224.38,0,0,0-86.06,108.21c-1.13,3-2.21,6.13-3.21,9.23-.27.83-.53,1.65-.79,2.47-.79,2.53-1.53,5.06-2.22,7.61a220.68,220.68,0,0,0-6.72,36.41h0c-.35,3.46-.62,6.94-.81,10.46q-.33,6-.32,12.07c0,123.37,99.89,223.4,223.2,223.64,125.46.25,227.11-103.81,224-229.24A223.67,223.67,0,0,0,575.41,230.44ZM479.49,648.66c-119.46,0-216.31-96.85-216.31-216.32q0-10.86,1.05-21.44A215,215,0,0,1,270.88,375c25.12-91.63,109-159,208.61-159a215.54,215.54,0,0,1,80.61,15.53c5.34,2.13,10.58,4.49,15.69,7a216.3,216.3,0,0,1,120,193.75C695.82,551.81,599,648.66,479.49,648.66Z"/><path class="cls-3" d="M575.79,238.59c-5.11-2.55-10.35-4.91-15.69-7A215.54,215.54,0,0,0,479.49,216c-99.6,0-183.49,67.33-208.61,159a215,215,0,0,0-6.65,35.92q-1.05,10.58-1.05,21.44c0,119.47,96.85,216.32,216.31,216.32s216.33-96.85,216.33-216.32A216.3,216.3,0,0,0,575.79,238.59Zm-96.3,396c-111.68,0-202.22-90.54-202.22-202.23s90.54-202.23,202.22-202.23,202.24,90.54,202.24,202.23S591.18,634.57,479.49,634.57Z"/></svg>